<svg xmlns="http://www.w3.org/2000/svg" viewBox="0 0 32 32">
  <rect width="32" height="32" rx="6" fill="#0d0a09"/>
  <path d="M16 4 C12 9, 7 12, 9 19 C11 24, 14 26, 16 30 C18 26, 21 24, 23 19 C25 12, 20 9, 16 4Z"
        fill="url(#f)"/>
  <path d="M16 10 C13.5 14, 10.5 16.5, 11.5 21 C12.5 24.5, 14.5 26, 16 29 C17.5 26, 19.5 24.5, 20.5 21 C21.5 16.5, 18.5 14, 16 10Z"
        fill="url(#g)"/>
  <defs>
    <linearGradient id="f" x1="16" y1="4" x2="16" y2="30" gradientUnits="userSpaceOnUse">
      <stop offset="0%" stop-color="#8b1a1a"/>
      <stop offset="60%" stop-color="#e05c2a"/>
      <stop offset="100%" stop-color="#d4a843"/>
    </linearGradient>
    <linearGradient id="g" x1="16" y1="10" x2="16" y2="29" gradientUnits="userSpaceOnUse">
      <stop offset="0%" stop-color="#c0392b"/>
      <stop offset="100%" stop-color="#e8913a"/>
    </linearGradient>
  </defs>
</svg>
